<svg xmlns="http://www.w3.org/2000/svg" height="40" viewBox="0 -960 960 960" width="40"><path d="M736.667-86q25.111-66.344 34.222-135.839T772.894-362Q739-271.167 659.199-217.917q-79.802 53.25-177.358 53.25-83.174 0-150.456-39.49-67.282-39.491-114.333-105.417Q170-375.5 144.667-460.735q-25.334-85.235-25.334-176.527 0-60.725 8.443-120.3 8.443-59.575 29.557-116.438h66q-24.667 66.167-33.167 135.778-8.5 69.612-2.833 139.556 34.333-91.167 115.333-143.917 81.001-52.75 179.334-52.75 83.43 0 149.664 39.657 66.233 39.658 112.784 105.584Q791-584.167 815.833-499.34q24.834 84.828 24.834 176.053 0 61.12-8.443 120.772Q823.781-142.863 802.667-86h-66ZM482.118-229.333q104.716 0 177.632-73.034 72.917-73.035 72.917-177.751 0-104.715-73.034-177.632-73.035-72.917-177.751-72.917-104.715 0-177.632 73.034-72.917 73.035-72.917 177.751 0 104.716 73.034 177.632 73.035 72.917 177.751 72.917ZM482-330.667q62.333 0 105.833-43.5T631.333-480q0-62.333-43.5-105.833T482-629.333q-62.333 0-105.833 43.5T332.667-480q0 62.333 43.5 105.833T482-330.667Zm.062-63.333q-36.033 0-61.048-24.952Q396-443.905 396-479.938t24.953-61.048Q445.905-566 481.938-566t61.048 24.952Q568-516.095 568-480.062t-24.952 61.048Q518.095-394 482.062-394ZM482-480Z"/></svg>